<svg width="48" height="42" viewBox="0 0 48 42" fill="none" xmlns="http://www.w3.org/2000/svg">
                                <path fill-rule="evenodd" clip-rule="evenodd" d="M9.99935 4.66667C9.99935 2.08934 12.0887 0 14.666 0H33.3327C35.9101 0 37.9994 2.08934 37.9994 4.66667V7H9.99935V4.66667ZM5.33268 15.1667C5.33268 12.5893 7.42202 10.5 9.99935 10.5H37.9994C40.5768 10.5 42.666 12.5893 42.666 15.1667V17.5H5.33268V15.1667ZM0.666016 25.6667C0.666016 23.0893 2.75535 21 5.33268 21H42.666C45.2434 21 47.3327 23.0893 47.3327 25.6667V32.6667C47.3327 37.8212 43.1539 42 37.9994 42H9.99935C4.84469 42 0.666016 37.8212 0.666016 32.6667V25.6667ZM17.5827 28C17.5827 27.0335 18.3662 26.25 19.3327 26.25H28.666C29.6325 26.25 30.416 27.0335 30.416 28C30.416 28.9665 29.6325 29.75 28.666 29.75H19.3327C18.3662 29.75 17.5827 28.9665 17.5827 28Z" fill="url(#paint0_linear_939_156)"></path>
                                <defs>
                                <linearGradient id="paint0_linear_939_156" x1="23.9993" y1="0" x2="23.9993" y2="42" gradientUnits="userSpaceOnUse">
                                <stop offset="1" stop-color="white"></stop>
                                <stop offset="1" stop-color="white" stop-opacity="0.5"></stop>
                                </linearGradient>
                                </defs>
                            </svg>