<svg width="48" height="48" viewBox="0 0 48 48" fill="none" xmlns="http://www.w3.org/2000/svg">
                                <path fill-rule="evenodd" clip-rule="evenodd" d="M25.4995 11.1667H14.666V10.0001C14.666 4.84542 18.8447 0.666748 23.9994 0.666748H37.9994C43.1539 0.666748 47.3327 4.84542 47.3327 10.0001V24.0001C47.3327 29.1546 43.1539 33.3334 37.9994 33.3334H36.8327V22.5C36.8327 16.2409 31.7586 11.1667 25.4995 11.1667ZM9.99935 47.3334H23.9994C29.1539 47.3334 33.3327 43.1547 33.3327 38.0001V24.0001C33.3327 18.8454 29.1539 14.6667 23.9994 14.6667H9.99935C4.84469 14.6667 0.666016 18.8454 0.666016 24.0001V38.0001C0.666016 43.1547 4.84469 47.3334 9.99935 47.3334ZM25.1518 25.0165C25.8791 25.6528 25.9528 26.7586 25.3163 27.4859L18.6199 35.139C17.181 36.7835 14.7024 37.0035 12.996 35.6385L8.90614 32.3667C8.15142 31.7628 8.02906 30.6615 8.63283 29.9069C9.23658 29.1521 10.3378 29.0298 11.0926 29.6337L15.1825 32.9055C15.4262 33.1006 15.7803 33.069 15.9859 32.8341L22.6824 25.181C23.3187 24.4537 24.4243 24.3799 25.1518 25.0165Z" fill="url(#paint0_linear_939_616)"></path>
                                <defs>
                                <linearGradient id="paint0_linear_939_616" x1="23.9993" y1="0.666748" x2="23.9993" y2="47.3334" gradientUnits="userSpaceOnUse">
                                <stop offset="1" stop-color="white"></stop>
                                <stop offset="1" stop-color="white" stop-opacity="0.5"></stop>
                                </linearGradient>
                                </defs>
                            </svg>